<svg id="visual" viewBox="0 0 900 900" width="900" height="900" xmlns="http://www.w3.org/2000/svg" xmlns:xlink="http://www.w3.org/1999/xlink" version="1.1"><rect x="0" y="0" width="900" height="900" fill="#001220"></rect><path d="M663 900L642.5 883.3C622 866.7 581 833.3 577.2 800C573.3 766.7 606.7 733.3 616.3 700C626 666.7 612 633.3 608.8 600C605.7 566.7 613.3 533.3 602.2 500C591 466.7 561 433.3 555.3 400C549.7 366.7 568.3 333.3 583.5 300C598.7 266.7 610.3 233.3 612.3 200C614.3 166.7 606.7 133.3 599.5 100C592.3 66.7 585.7 33.3 582.3 16.7L579 0L900 0L900 16.7C900 33.3 900 66.7 900 100C900 133.3 900 166.7 900 200C900 233.3 900 266.7 900 300C900 333.3 900 366.7 900 400C900 433.3 900 466.7 900 500C900 533.3 900 566.7 900 600C900 633.3 900 666.7 900 700C900 733.3 900 766.7 900 800C900 833.3 900 866.7 900 883.3L900 900Z" fill="#0d7377"></path><path d="M636 900L647.3 883.3C658.7 866.7 681.3 833.3 689.2 800C697 766.7 690 733.3 674 700C658 666.7 633 633.3 624.3 600C615.7 566.7 623.3 533.3 624.2 500C625 466.7 619 433.3 627.3 400C635.7 366.7 658.3 333.3 653.2 300C648 266.7 615 233.3 614.7 200C614.3 166.7 646.7 133.3 666 100C685.3 66.7 691.7 33.3 694.8 16.7L698 0L900 0L900 16.7C900 33.3 900 66.7 900 100C900 133.3 900 166.7 900 200C900 233.3 900 266.7 900 300C900 333.3 900 366.7 900 400C900 433.3 900 466.7 900 500C900 533.3 900 566.7 900 600C900 633.3 900 666.7 900 700C900 733.3 900 766.7 900 800C900 833.3 900 866.7 900 883.3L900 900Z" fill="#068e8f"></path><path d="M664 900L675.8 883.3C687.7 866.7 711.3 833.3 714.3 800C717.3 766.7 699.7 733.3 691.7 700C683.7 666.7 685.3 633.3 679.8 600C674.3 566.7 661.7 533.3 670.5 500C679.3 466.7 709.7 433.3 723.3 400C737 366.7 734 333.3 724 300C714 266.7 697 233.3 687 200C677 166.7 674 133.3 678.2 100C682.3 66.7 693.7 33.3 699.3 16.7L705 0L900 0L900 16.7C900 33.3 900 66.7 900 100C900 133.3 900 166.7 900 200C900 233.3 900 266.7 900 300C900 333.3 900 366.7 900 400C900 433.3 900 466.7 900 500C900 533.3 900 566.7 900 600C900 633.3 900 666.7 900 700C900 733.3 900 766.7 900 800C900 833.3 900 866.7 900 883.3L900 900Z" fill="#01a9a7"></path><path d="M763 900L757.5 883.3C752 866.7 741 833.3 730.3 800C719.7 766.7 709.3 733.3 709.3 700C709.3 666.7 719.7 633.3 733 600C746.3 566.7 762.7 533.3 760.2 500C757.7 466.7 736.3 433.3 736.3 400C736.3 366.7 757.7 333.3 766.8 300C776 266.7 773 233.3 762.2 200C751.3 166.7 732.7 133.3 733.3 100C734 66.7 754 33.3 764 16.7L774 0L900 0L900 16.7C900 33.3 900 66.7 900 100C900 133.3 900 166.7 900 200C900 233.3 900 266.7 900 300C900 333.3 900 366.7 900 400C900 433.3 900 466.7 900 500C900 533.3 900 566.7 900 600C900 633.3 900 666.7 900 700C900 733.3 900 766.7 900 800C900 833.3 900 866.7 900 883.3L900 900Z" fill="#00c5bf"></path><path d="M782 900L782.2 883.3C782.3 866.7 782.7 833.3 787.2 800C791.7 766.7 800.3 733.3 795 700C789.7 666.7 770.3 633.3 764 600C757.7 566.7 764.3 533.3 773.2 500C782 466.7 793 433.3 799.8 400C806.7 366.7 809.3 333.3 810.8 300C812.3 266.7 812.7 233.3 802.5 200C792.3 166.7 771.7 133.3 768.5 100C765.3 66.7 779.7 33.3 786.8 16.7L794 0L900 0L900 16.7C900 33.3 900 66.7 900 100C900 133.3 900 166.7 900 200C900 233.3 900 266.7 900 300C900 333.3 900 366.7 900 400C900 433.3 900 466.7 900 500C900 533.3 900 566.7 900 600C900 633.3 900 666.7 900 700C900 733.3 900 766.7 900 800C900 833.3 900 866.7 900 883.3L900 900Z" fill="#02e2d6"></path><path d="M845 900L847.7 883.3C850.3 866.7 855.7 833.3 859 800C862.3 766.7 863.7 733.3 862.5 700C861.3 666.7 857.7 633.3 854 600C850.3 566.7 846.7 533.3 839.2 500C831.7 466.7 820.3 433.3 820.3 400C820.3 366.7 831.7 333.3 833.8 300C836 266.7 829 233.3 832 200C835 166.7 848 133.3 848.5 100C849 66.7 837 33.3 831 16.7L825 0L900 0L900 16.7C900 33.3 900 66.7 900 100C900 133.3 900 166.7 900 200C900 233.3 900 266.7 900 300C900 333.3 900 366.7 900 400C900 433.3 900 466.7 900 500C900 533.3 900 566.7 900 600C900 633.3 900 666.7 900 700C900 733.3 900 766.7 900 800C900 833.3 900 866.7 900 883.3L900 900Z" fill="#14ffec"></path></svg>